<svg width="28" height="12" viewBox="0 0 28 12" fill="none" xmlns="http://www.w3.org/2000/svg">
<g clip-path="url(#clip0_8174_38274)">
<path d="M14.26 0.570312H13.1626C12.8598 0.570312 12.6143 0.813358 12.6143 1.11317V10.8875C12.6143 11.1873 12.8598 11.4303 13.1626 11.4303H14.26C14.5629 11.4303 14.8084 11.1873 14.8084 10.8875V1.11317C14.8084 0.813358 14.5629 0.570312 14.26 0.570312Z" fill="black"/>
<path d="M28.0001 6.67886V5.32114C27.7837 5.24971 27.5666 5.17829 27.3502 5.10686C27.2919 4.75714 27.1995 4.41886 27.0765 4.09543C27.2284 3.92629 27.3796 3.75714 27.5314 3.588C27.3028 3.196 27.0742 2.804 26.8456 2.41257C26.6211 2.45829 26.396 2.50343 26.1714 2.54914C26.06 2.41429 25.9417 2.28514 25.817 2.16171C25.6923 2.03829 25.5624 1.92114 25.4256 1.81086C25.4718 1.58857 25.5174 1.36571 25.5636 1.14343C25.1676 0.917143 24.7716 0.690857 24.3762 0.464571C24.2053 0.614857 24.0344 0.764571 23.8636 0.914857C23.5369 0.793143 23.1951 0.701714 22.8424 0.644571C22.7703 0.429714 22.6975 0.214857 22.6254 0H21.2538C21.1817 0.214286 21.1095 0.429143 21.0368 0.643429C20.6835 0.701143 20.3418 0.792571 20.0151 0.914286C19.8442 0.764 19.6733 0.614286 19.5025 0.464C19.1065 0.690286 18.7105 0.916571 18.3151 1.14286C18.3613 1.36514 18.4069 1.588 18.453 1.81029C18.3168 1.92057 18.1863 2.03771 18.0617 2.16114C17.937 2.28457 17.8186 2.41314 17.7072 2.54857C17.4827 2.50286 17.2576 2.45771 17.033 2.412C16.8044 2.804 16.5758 3.196 16.3472 3.58743C16.499 3.75657 16.6503 3.92571 16.8021 4.09486C16.6792 4.41829 16.5868 4.75657 16.5291 5.10629C16.312 5.17771 16.095 5.24971 15.8779 5.32114V6.67886C16.0944 6.75029 16.3114 6.82171 16.5279 6.89371C16.5862 7.24343 16.6786 7.58171 16.8015 7.90514C16.6497 8.07429 16.4985 8.24343 16.3467 8.41257C16.5752 8.80457 16.8038 9.19657 17.0324 9.588C17.257 9.54229 17.4821 9.49714 17.7067 9.45143C17.8181 9.58629 17.9364 9.71543 18.0611 9.83886C18.1858 9.96229 18.3156 10.0794 18.4525 10.1897C18.4063 10.412 18.3607 10.6349 18.3145 10.8571C18.7105 11.0834 19.1065 11.3097 19.5019 11.536C19.6728 11.3857 19.8436 11.236 20.0145 11.0857C20.3412 11.2074 20.6829 11.2989 21.0362 11.356C21.1084 11.5709 21.1811 11.7857 21.2533 12.0006H22.6248C22.697 11.7863 22.7691 11.5714 22.8419 11.3571C23.1951 11.2994 23.5369 11.208 23.8636 11.0863C24.0344 11.2366 24.2053 11.3863 24.3762 11.5366C24.7722 11.3103 25.1682 11.084 25.5636 10.8577C25.5174 10.6354 25.4718 10.4126 25.4256 10.1903C25.5618 10.08 25.6923 9.96286 25.817 9.83943C25.9417 9.716 26.06 9.58743 26.1714 9.452C26.396 9.49771 26.6211 9.54286 26.8456 9.58857C27.0742 9.19657 27.3028 8.80457 27.5314 8.41314C27.3796 8.244 27.2284 8.07486 27.0765 7.90571C27.1995 7.58229 27.2919 7.244 27.3496 6.89486C27.5666 6.82343 27.7837 6.75143 28.0007 6.68L28.0001 6.67886ZM24.9725 7.26571C24.8062 7.65486 24.5644 8.00686 24.2653 8.30286C23.9663 8.59886 23.6107 8.83829 23.2176 9.00286C22.8263 9.16686 22.3939 9.25829 21.939 9.25829C21.4842 9.25829 21.0524 9.16743 20.6604 9.00286C20.2673 8.83829 19.9117 8.59886 19.6127 8.30286C19.3137 8.00686 19.0718 7.65486 18.9056 7.26571C18.7399 6.87829 18.6476 6.45029 18.6476 6C18.6476 5.54971 18.7393 5.12229 18.9056 4.73429C19.0718 4.34514 19.3137 3.99314 19.6127 3.69714C19.9117 3.40114 20.2673 3.16171 20.6604 2.99714C21.0518 2.83314 21.4842 2.74171 21.939 2.74171C22.3939 2.74171 22.8257 2.83257 23.2176 2.99714C23.6107 3.16171 23.9663 3.40114 24.2653 3.69714C24.5644 3.99314 24.8062 4.34514 24.9725 4.73429C25.1381 5.12171 25.2305 5.54971 25.2305 6C25.2305 6.45029 25.1387 6.87771 24.9725 7.26571Z" fill="black"/>
<path d="M5.02862 6.18751C5.01996 6.30865 4.97436 6.40408 4.89297 6.47379C4.81158 6.54351 4.70421 6.57836 4.57087 6.57836C4.4254 6.57836 4.31053 6.52979 4.22683 6.43265C4.14312 6.33551 4.10156 6.20236 4.10156 6.03265V5.96408C4.10156 5.85608 4.12061 5.76065 4.15929 5.67836C4.19796 5.59608 4.2528 5.53265 4.32438 5.48865C4.39596 5.44465 4.47908 5.42236 4.57375 5.42236C4.70479 5.42236 4.81042 5.45722 4.89066 5.52693C4.9709 5.59665 5.01708 5.69436 5.02978 5.82008H4.79542C4.78964 5.74751 4.76944 5.69493 4.73423 5.66179C4.69901 5.62922 4.64533 5.61265 4.57375 5.61265C4.49582 5.61265 4.43694 5.64008 4.39827 5.69551C4.35959 5.75093 4.33939 5.83665 4.33881 5.95265V6.03779C4.33881 6.15893 4.35728 6.24808 4.3948 6.30408C4.43175 6.36008 4.49063 6.38808 4.57087 6.38808C4.64302 6.38808 4.69728 6.37151 4.73307 6.33893C4.76886 6.30636 4.78907 6.25608 4.79426 6.18751H5.02862Z" fill="black"/>
<path d="M6.09662 6.09121C6.16474 6.06093 6.21554 6.01979 6.24902 5.96893C6.2825 5.9175 6.29924 5.8535 6.29924 5.77693C6.29924 5.66893 6.26287 5.58493 6.19014 5.52607C6.1174 5.46664 6.0135 5.4375 5.87958 5.4375H5.45703V6.56264H5.69139V6.15007H5.87785C5.94885 6.28779 6.01985 6.42493 6.09085 6.56264H6.34253V6.55179C6.21958 6.3215 6.09662 6.09179 6.09662 6.09179V6.09121ZM6.01696 5.9175C5.98464 5.94721 5.93903 5.9615 5.88015 5.9615H5.69139V5.62493H5.87958C5.9425 5.62493 5.98925 5.64036 6.01985 5.67007C6.05044 5.70036 6.06545 5.74207 6.06545 5.79464C6.06545 5.84721 6.04929 5.88721 6.01696 5.91693V5.9175Z" fill="black"/>
<path d="M7.14376 5.94436C7.22284 5.77521 7.30135 5.60664 7.38043 5.4375H7.63673C7.51204 5.67636 7.38794 5.91579 7.26325 6.15464V6.56264H7.02485V6.15464C6.90016 5.91579 6.77605 5.67636 6.65137 5.4375H6.90824C6.98675 5.60664 7.06468 5.77521 7.14318 5.94436H7.14376Z" fill="black"/>
<path d="M8.83261 5.61579C8.79797 5.55864 8.74775 5.51464 8.6831 5.48379C8.61845 5.45293 8.54341 5.4375 8.45797 5.4375H8.01465V6.56264H8.24901V6.16721H8.45451C8.58959 6.16721 8.69465 6.13521 8.77142 6.07179C8.84762 6.00779 8.88572 5.92093 8.88572 5.81064C8.88572 5.73807 8.8684 5.67293 8.83319 5.61579H8.83261ZM8.59998 5.93579C8.56765 5.96493 8.52032 5.97921 8.45797 5.97921H8.24843V5.6255H8.46317C8.52089 5.62664 8.5665 5.64379 8.59882 5.67807C8.63173 5.71236 8.64789 5.75693 8.64789 5.81179C8.64789 5.86664 8.63173 5.90664 8.59882 5.93579H8.59998Z" fill="black"/>
<path d="M10.1759 5.6255H9.82783V6.56264H9.59346V5.6255H9.25V5.4375H10.1759V5.6255Z" fill="black"/>
<path d="M11.4568 5.68351C11.4164 5.59951 11.3593 5.53493 11.286 5.48979C11.2121 5.44465 11.1278 5.42236 11.0331 5.42236C10.9385 5.42236 10.8542 5.44465 10.7803 5.48979C10.7064 5.53493 10.6498 5.59951 10.6094 5.68351C10.569 5.76751 10.5488 5.86522 10.5488 5.97608V6.03151C10.5488 6.13951 10.5702 6.23551 10.6106 6.31836C10.651 6.40179 10.7087 6.46522 10.7826 6.51036C10.8565 6.55493 10.9408 6.57779 11.0349 6.57779C11.129 6.57779 11.2144 6.55493 11.2883 6.50979C11.3622 6.46465 11.4187 6.40008 11.458 6.31665C11.4978 6.23322 11.5175 6.13608 11.5175 6.02522V5.97493C11.5175 5.86465 11.4972 5.76751 11.4568 5.68351ZM11.2802 6.02979C11.2802 6.14636 11.2583 6.23551 11.2161 6.29665C11.174 6.35779 11.1134 6.38808 11.0349 6.38808C10.9564 6.38808 10.8934 6.35665 10.8507 6.29322C10.808 6.22979 10.7867 6.14065 10.7867 6.02636V5.97151C10.7867 5.85493 10.8086 5.76579 10.8513 5.70579C10.894 5.64579 10.9546 5.61493 11.0331 5.61493C11.1116 5.61493 11.1734 5.64579 11.2161 5.70693C11.2588 5.76808 11.2802 5.85779 11.2802 5.97551V6.03036V6.02979Z" fill="black"/>
<path d="M10.4951 2.84595C10.5973 2.64309 10.7 2.44024 10.8022 2.23738C10.479 1.91738 10.1557 1.59738 9.83245 1.27738C9.62752 1.37909 9.42202 1.48024 9.2171 1.58195C8.93194 1.37909 8.626 1.20367 8.30332 1.05852C8.28946 0.832237 8.27561 0.606523 8.26233 0.380237C7.82074 0.263094 7.37914 0.145951 6.93755 0.0288086C6.81171 0.217951 6.68529 0.407094 6.55945 0.596237C6.3857 0.578523 6.20964 0.570523 6.03127 0.570523C5.8529 0.570523 5.67684 0.579094 5.50308 0.596237C5.37724 0.407094 5.25083 0.217951 5.12499 0.0288086C4.68339 0.145951 4.2418 0.263094 3.8002 0.380237C3.78635 0.605951 3.77307 0.831666 3.75922 1.05795C3.43654 1.20367 3.13059 1.37967 2.84543 1.58252C2.64051 1.48081 2.43501 1.37967 2.23009 1.27795C1.90683 1.59795 1.58357 1.91795 1.26031 2.23795C1.36306 2.44081 1.46523 2.64424 1.56798 2.84709C1.36306 3.12938 1.18585 3.43224 1.03922 3.75167C0.810634 3.76538 0.582621 3.77852 0.354031 3.79224C0.235695 4.22938 0.117359 4.66652 -0.000976562 5.10367C0.190093 5.22824 0.381162 5.35338 0.572231 5.47795C0.554336 5.64995 0.546255 5.82424 0.546255 6.00081C0.546255 6.17738 0.554913 6.35167 0.572231 6.52367C0.381162 6.64824 0.190093 6.77338 -0.000976562 6.89795C0.117359 7.33509 0.235695 7.77224 0.354031 8.20938C0.582044 8.22309 0.810057 8.23624 1.03865 8.24995C1.18585 8.56938 1.36364 8.87224 1.56856 9.15452C1.46581 9.35738 1.36364 9.56081 1.26089 9.76367C1.58415 10.0837 1.90741 10.4037 2.23066 10.7237C2.43559 10.622 2.64109 10.5208 2.84601 10.4191C3.13117 10.622 3.43711 10.7974 3.7598 10.9425C3.77365 11.1688 3.7875 11.3945 3.80078 11.6208C4.24237 11.738 4.68397 11.8551 5.12556 11.9722C5.2514 11.7831 5.37782 11.594 5.50366 11.4048C5.67741 11.4225 5.85347 11.4305 6.03184 11.4305C6.21021 11.4305 6.38627 11.422 6.56003 11.4048C6.68587 11.594 6.81228 11.7831 6.93812 11.9722C7.37972 11.8551 7.82131 11.738 8.26291 11.6208C8.27676 11.3951 8.29004 11.1694 8.30389 10.9431C8.62657 10.7974 8.93252 10.6214 9.21768 10.4185C9.4226 10.5202 9.6281 10.6214 9.83302 10.7231C10.1563 10.4031 10.4795 10.0831 10.8028 9.76309C10.7006 9.56024 10.5979 9.35738 10.4957 9.15452C10.5246 9.11509 10.5523 9.07509 10.58 9.03509C10.6787 8.89052 10.7705 8.74138 10.8548 8.58709C10.8698 8.56024 10.8842 8.53281 10.898 8.50538C11.006 8.29681 10.9073 8.03738 10.6816 7.94252C10.2781 7.77224 9.87401 7.60195 9.47051 7.43224C9.25 7.33909 8.99082 7.43452 8.86729 7.64995C8.83438 7.70709 8.79975 7.76367 8.7628 7.81795C8.64447 7.99224 8.50882 8.15395 8.35815 8.30309C8.05683 8.60138 7.70644 8.83738 7.31045 9.00309C6.91619 9.16824 6.49018 9.25852 6.03184 9.25852C5.57351 9.25852 5.1475 9.16824 4.75324 9.00309C4.35725 8.83738 4.00686 8.60138 3.70553 8.30309C3.40421 8.00481 3.16581 7.65795 2.9984 7.26595C2.83158 6.87567 2.74037 6.45395 2.74037 6.00024C2.74037 5.54652 2.831 5.12481 2.9984 4.73452C3.16581 4.34252 3.40421 3.99567 3.70553 3.69738C4.00686 3.39909 4.35725 3.16309 4.75324 2.99738C5.1475 2.83224 5.57351 2.74195 6.03184 2.74195C6.49018 2.74195 6.91619 2.83224 7.31045 2.99738C7.70644 3.16309 8.05683 3.39909 8.35815 3.69738C8.50882 3.84652 8.64389 4.00881 8.7628 4.18252C8.79975 4.23681 8.83438 4.29338 8.86729 4.35052C8.99082 4.56595 9.25 4.66081 9.47051 4.56824C9.87401 4.39795 10.2781 4.22824 10.6816 4.05795C10.9073 3.96309 11.006 3.70367 10.898 3.49509C10.8836 3.46767 10.8692 3.44024 10.8548 3.41338C10.7705 3.25967 10.6787 3.10995 10.58 2.96538C10.5523 2.92538 10.5246 2.88538 10.4957 2.84595H10.4951Z" fill="black"/>
</g>
<defs>
<clipPath id="clip0_8174_38274">
<rect width="28" height="12" fill="white"/>
</clipPath>
</defs>
</svg>
