<svg width="128" height="128" viewBox="0 0 128 128" fill="none" xmlns="http://www.w3.org/2000/svg">
<rect width="128" height="128" fill="white"/>
<g clip-path="url(#clip0_522_456)">
<path d="M65.024 42.3734H60.6974C59.5032 42.3734 58.5352 43.3414 58.5352 44.5356V83.4667C58.5352 84.6609 59.5032 85.6289 60.6974 85.6289H65.024C66.2182 85.6289 67.1863 84.6609 67.1863 83.4667V44.5356C67.1863 43.3414 66.2182 42.3734 65.024 42.3734Z" fill="black"/>
<path d="M119.2 66.7039V61.2961C118.346 61.0116 117.491 60.7271 116.637 60.4426C116.407 59.0497 116.043 57.7023 115.558 56.4141C116.157 55.7404 116.753 55.0667 117.352 54.393C116.451 52.8316 115.549 51.2703 114.648 49.7112C113.763 49.8933 112.875 50.0731 111.99 50.2552C111.55 49.7181 111.084 49.2037 110.592 48.7121C110.1 48.2204 109.588 47.7539 109.049 47.3146C109.231 46.4292 109.411 45.5416 109.593 44.6562C108.032 43.7549 106.47 42.8536 104.911 41.9523C104.237 42.5509 103.564 43.1472 102.89 43.7458C101.602 43.261 100.254 42.8969 98.8638 42.6693C98.5793 41.8135 98.2926 40.9577 98.0081 40.1019H92.6003C92.3158 40.9554 92.0313 41.8112 91.7445 42.6647C90.3516 42.8946 89.0042 43.2588 87.716 43.7435C87.0423 43.145 86.3686 42.5486 85.6949 41.95C84.1335 42.8513 82.5722 43.7526 81.0131 44.6539C81.1952 45.5393 81.375 46.427 81.5571 47.3123C81.0199 47.7516 80.5056 48.2182 80.0139 48.7098C79.5223 49.2014 79.0557 49.7135 78.6165 50.2529C77.7311 50.0708 76.8435 49.891 75.9581 49.709C75.0568 51.2703 74.1555 52.8316 73.2542 54.3907C73.8528 55.0644 74.4491 55.7381 75.0477 56.4118C74.5629 57.7 74.1987 59.0474 73.9711 60.4403C73.1154 60.7248 72.2596 61.0116 71.4038 61.2961V66.7039C72.2573 66.9884 73.1131 67.2729 73.9666 67.5597C74.1965 68.9526 74.5606 70.3 75.0454 71.5882C74.4468 72.2619 73.8505 72.9356 73.2519 73.6093C74.1532 75.1706 75.0545 76.732 75.9558 78.2911C76.8412 78.109 77.7288 77.9292 78.6142 77.7471C79.0535 78.2842 79.5201 78.7986 80.0117 79.2902C80.5033 79.7818 81.0154 80.2484 81.5548 80.6877C81.3727 81.5731 81.1929 82.4607 81.0108 83.3461C82.5722 84.2474 84.1335 85.1487 85.6926 86.05C86.3663 85.4514 87.04 84.8551 87.7137 84.2565C89.0019 84.7413 90.3493 85.1054 91.7422 85.333C92.0267 86.1888 92.3135 87.0446 92.598 87.9004H98.0058C98.2903 87.0469 98.5748 86.1911 98.8616 85.3376C100.254 85.1077 101.602 84.7435 102.89 84.2587C103.564 84.8573 104.237 85.4536 104.911 86.0522C106.473 85.1509 108.034 84.2496 109.593 83.3483C109.411 82.463 109.231 81.5753 109.049 80.69C109.586 80.2507 110.1 79.7841 110.592 79.2925C111.084 78.8009 111.55 78.2888 111.99 77.7494C112.875 77.9314 113.763 78.1113 114.648 78.2933C115.549 76.732 116.451 75.1706 117.352 73.6116C116.753 72.9379 116.157 72.2642 115.558 71.5905C116.043 70.3023 116.407 68.9549 116.635 67.5642C117.491 67.2797 118.346 66.993 119.202 66.7085L119.2 66.7039ZM107.262 69.0414C106.607 70.5913 105.653 71.9933 104.474 73.1723C103.295 74.3513 101.893 75.3049 100.343 75.9604C98.8001 76.6136 97.0954 76.9778 95.3019 76.9778C93.5084 76.9778 91.8059 76.6159 90.2605 75.9604C88.7106 75.3049 87.3085 74.3513 86.1296 73.1723C84.9506 71.9933 83.997 70.5913 83.3415 69.0414C82.6883 67.4982 82.3241 65.7935 82.3241 64C82.3241 62.2065 82.686 60.5041 83.3415 58.9586C83.997 57.4087 84.9506 56.0067 86.1296 54.8277C87.3085 53.6487 88.7106 52.6951 90.2605 52.0396C91.8037 51.3864 93.5084 51.0222 95.3019 51.0222C97.0954 51.0222 98.7978 51.3841 100.343 52.0396C101.893 52.6951 103.295 53.6487 104.474 54.8277C105.653 56.0067 106.607 57.4087 107.262 58.9586C107.916 60.5018 108.28 62.2065 108.28 64C108.28 65.7935 107.918 67.496 107.262 69.0414Z" fill="black"/>
<path d="M28.6284 64.7465C28.5943 65.229 28.4145 65.6091 28.0936 65.8868C27.7726 66.1645 27.3493 66.3033 26.8235 66.3033C26.25 66.3033 25.7971 66.1099 25.467 65.7229C25.137 65.336 24.9731 64.8057 24.9731 64.1297V63.8566C24.9731 63.4264 25.0483 63.0464 25.2007 62.7186C25.3532 62.3909 25.5695 62.1382 25.8517 61.963C26.1339 61.7877 26.4617 61.699 26.8349 61.699C27.3516 61.699 27.7681 61.8378 28.0844 62.1155C28.4008 62.3931 28.5829 62.7823 28.633 63.2831H27.7089C27.6861 62.994 27.6065 62.7846 27.4676 62.6526C27.3288 62.5229 27.1171 62.4569 26.8349 62.4569C26.5277 62.4569 26.2955 62.5661 26.143 62.7869C25.9905 63.0077 25.9109 63.3491 25.9086 63.8111V64.1502C25.9086 64.6327 25.9814 64.9878 26.1294 65.2108C26.275 65.4339 26.5072 65.5454 26.8235 65.5454C27.108 65.5454 27.322 65.4794 27.4631 65.3497C27.6042 65.2199 27.6839 65.0197 27.7044 64.7465H28.6284Z" fill="black"/>
<path d="M32.8392 64.3642C33.1078 64.2435 33.3081 64.0797 33.4401 63.8771C33.5721 63.6723 33.6381 63.4173 33.6381 63.1124C33.6381 62.6822 33.4947 62.3476 33.2079 62.1132C32.9211 61.8765 32.5115 61.7604 31.9834 61.7604H30.3174V66.2419H31.2414V64.5986H31.9766C32.2565 65.1471 32.5365 65.6933 32.8164 66.2419H33.8088V66.1986C33.324 65.2814 32.8392 64.3664 32.8392 64.3664V64.3642ZM32.5251 63.6723C32.3977 63.7906 32.2178 63.8475 31.9857 63.8475H31.2414V62.5069H31.9834C32.2315 62.5069 32.4159 62.5684 32.5365 62.6867C32.6571 62.8074 32.7163 62.9735 32.7163 63.1829C32.7163 63.3923 32.6526 63.5516 32.5251 63.67V63.6723Z" fill="black"/>
<path d="M36.9678 63.7792C37.2796 63.1055 37.5892 62.4341 37.901 61.7604H38.9115C38.4199 62.7118 37.9306 63.6654 37.4389 64.6168V66.2419H36.4989V64.6168C36.0073 63.6654 35.518 62.7118 35.0264 61.7604H36.0392C36.3487 62.4341 36.656 63.1055 36.9655 63.7792H36.9678Z" fill="black"/>
<path d="M43.6274 62.4705C43.4909 62.2429 43.2929 62.0677 43.038 61.9448C42.783 61.8219 42.4872 61.7604 42.1503 61.7604H40.4023V66.2419H41.3264V64.6669H42.1367C42.6692 64.6669 43.0835 64.5394 43.3862 64.2868C43.6866 64.0319 43.8368 63.6859 43.8368 63.2466C43.8368 62.9576 43.7686 62.6981 43.6297 62.4705H43.6274ZM42.7102 63.7451C42.5828 63.8612 42.3961 63.9181 42.1503 63.9181H41.3241V62.5092H42.1708C42.3984 62.5138 42.5782 62.582 42.7057 62.7186C42.8354 62.8552 42.8991 63.0327 42.8991 63.2512C42.8991 63.4697 42.8354 63.629 42.7057 63.7451H42.7102Z" fill="black"/>
<path d="M48.9237 62.5092H47.5512V66.2419H46.6272V62.5092H45.2729V61.7604H48.9237V62.5092Z" fill="black"/>
<path d="M53.9718 62.7391C53.8124 62.4045 53.5871 62.1473 53.2981 61.9675C53.0067 61.7877 52.6744 61.699 52.3012 61.699C51.9279 61.699 51.5956 61.7877 51.3043 61.9675C51.013 62.1473 50.7899 62.4045 50.6306 62.7391C50.4713 63.0737 50.3916 63.4629 50.3916 63.9044V64.1252C50.3916 64.5553 50.4758 64.9377 50.6351 65.2677C50.7945 65.6 51.0221 65.8527 51.3134 66.0325C51.6047 66.21 51.937 66.301 52.308 66.301C52.679 66.301 53.0158 66.21 53.3072 66.0302C53.5985 65.8504 53.8215 65.5932 53.9763 65.2609C54.1334 64.9286 54.2107 64.5417 54.2107 64.1001V63.8999C54.2107 63.4606 54.1311 63.0737 53.9718 62.7391ZM53.2753 64.1184C53.2753 64.5827 53.1888 64.9377 53.0227 65.1813C52.8565 65.4248 52.6175 65.5454 52.308 65.5454C51.9985 65.5454 51.7504 65.4202 51.582 65.1676C51.4135 64.915 51.3293 64.5599 51.3293 64.1047V63.8862C51.3293 63.4219 51.4158 63.0668 51.5842 62.8279C51.7527 62.5889 51.9916 62.466 52.3012 62.466C52.6107 62.466 52.8542 62.5889 53.0227 62.8324C53.1911 63.0759 53.2753 63.4333 53.2753 63.9021V64.1206V64.1184Z" fill="black"/>
<path d="M50.182 51.4364C50.5849 50.6285 50.99 49.8205 51.3928 49.0125C50.1183 47.7379 48.8437 46.4634 47.5691 45.1888C46.7612 45.5939 45.9509 45.9968 45.1429 46.4019C44.0186 45.5939 42.8123 44.8952 41.54 44.3171C41.4854 43.4158 41.4308 42.5168 41.3784 41.6155C39.6373 41.1489 37.8961 40.6823 36.155 40.2157C35.6588 40.9691 35.1604 41.7224 34.6642 42.4758C33.9791 42.4052 33.2849 42.3734 32.5816 42.3734C31.8784 42.3734 31.1842 42.4075 30.4991 42.4758C30.0029 41.7224 29.5045 40.9691 29.0083 40.2157C27.2672 40.6823 25.526 41.1489 23.7849 41.6155C23.7302 42.5145 23.6779 43.4135 23.6233 44.3148C22.351 44.8952 21.1447 45.5962 20.0204 46.4042C19.2124 45.9991 18.4021 45.5962 17.5941 45.1911C16.3196 46.4656 15.045 47.7402 13.7704 49.0148C14.1756 49.8228 14.5784 50.633 14.9836 51.441C14.1756 52.5653 13.4768 53.7716 12.8987 55.0439C11.9974 55.0985 11.0984 55.1509 10.1971 55.2055C9.73053 56.9467 9.26394 58.6878 8.79736 60.4289C9.55072 60.9251 10.3041 61.4236 11.0574 61.9197C10.9869 62.6048 10.955 63.299 10.955 64.0023C10.955 64.7056 10.9892 65.3997 11.0574 66.0848C10.3041 66.581 9.55072 67.0794 8.79736 67.5756C9.26394 69.3168 9.73053 71.0579 10.1971 72.799C11.0961 72.8537 11.9952 72.906 12.8965 72.9606C13.4768 74.2329 14.1778 75.4392 14.9858 76.5636C14.5807 77.3715 14.1778 78.1818 13.7727 78.9898C15.0473 80.2643 16.3218 81.5389 17.5964 82.8135C18.4044 82.4083 19.2146 82.0055 20.0226 81.6004C21.147 82.4083 22.3533 83.1071 23.6255 83.6852C23.6802 84.5865 23.7348 85.4855 23.7871 86.3868C25.5283 86.8534 27.2694 87.32 29.0106 87.7866C29.5068 87.0332 30.0052 86.2798 30.5014 85.5265C31.1864 85.597 31.8806 85.6289 32.5839 85.6289C33.2872 85.6289 33.9814 85.5948 34.6665 85.5265C35.1626 86.2798 35.6611 87.0332 36.1572 87.7866C37.8984 87.32 39.6395 86.8534 41.3807 86.3868C41.4353 85.4878 41.4877 84.5888 41.5423 83.6875C42.8146 83.1071 44.0208 82.4061 45.1452 81.5981C45.9532 82.0032 46.7634 82.4061 47.5714 82.8112C48.846 81.5366 50.1205 80.2621 51.3951 78.9875C50.9923 78.1795 50.5871 77.3715 50.1843 76.5636C50.2981 76.4065 50.4073 76.2472 50.5166 76.0879C50.9058 75.512 51.2677 74.918 51.6 74.3035C51.6591 74.1965 51.716 74.0873 51.7707 73.978C52.1963 73.1473 51.8071 72.114 50.9171 71.7362C49.3262 71.0579 47.733 70.3797 46.1421 69.7037C45.2727 69.3327 44.2507 69.7128 43.7637 70.5708C43.6339 70.7984 43.4974 71.0238 43.3517 71.24C42.8851 71.9342 42.3503 72.5783 41.7562 73.1723C40.5681 74.3604 39.1866 75.3004 37.6253 75.9604C36.0708 76.6182 34.3911 76.9778 32.5839 76.9778C30.7768 76.9778 29.0971 76.6182 27.5426 75.9604C25.9812 75.3004 24.5997 74.3604 23.4116 73.1723C22.2235 71.9842 21.2835 70.6027 20.6235 69.0414C19.9657 67.4868 19.6061 65.8072 19.6061 64C19.6061 62.1929 19.9635 60.5132 20.6235 58.9586C21.2835 57.3973 22.2235 56.0158 23.4116 54.8277C24.5997 53.6396 25.9812 52.6996 27.5426 52.0396C29.0971 51.3818 30.7768 51.0222 32.5839 51.0222C34.3911 51.0222 36.0708 51.3818 37.6253 52.0396C39.1866 52.6996 40.5681 53.6396 41.7562 54.8277C42.3503 55.4217 42.8828 56.0681 43.3517 56.76C43.4974 56.9762 43.6339 57.2016 43.7637 57.4292C44.2507 58.2872 45.2727 58.665 46.1421 58.2963C47.733 57.6181 49.3262 56.9421 50.9171 56.2639C51.8071 55.886 52.1963 54.8527 51.7707 54.022C51.7138 53.9127 51.6569 53.8035 51.6 53.6965C51.2677 53.0843 50.9058 52.488 50.5166 51.9121C50.4073 51.7528 50.2981 51.5935 50.1843 51.4364H50.182Z" fill="black"/>
</g>
<defs>
<clipPath id="clip0_522_456">
<rect width="110.4" height="47.7962" fill="white" transform="translate(8.7998 40.1019)"/>
</clipPath>
</defs>
</svg>
