<svg width="56" height="42" viewBox="0 0 56 42" fill="none" xmlns="http://www.w3.org/2000/svg">
<path fill-rule="evenodd" clip-rule="evenodd" d="M31.4727 0.0697077C31.5815 0.115722 31.6802 0.183135 31.7629 0.267999L41.0173 9.57292C41.1848 9.74274 41.2787 9.97241 41.2787 10.2118C41.2787 10.4512 41.1848 10.6809 41.0173 10.8507L40.1721 11.6916C40.0036 11.8604 39.7757 11.9551 39.5382 11.9551C39.3006 11.9551 39.0727 11.8604 38.9042 11.6916L29.6606 2.37579C29.578 2.29263 29.5125 2.19389 29.4678 2.0852C29.4232 1.97651 29.4001 1.86001 29.4001 1.74236C29.4001 1.62471 29.4232 1.50822 29.4678 1.39954C29.5125 1.29085 29.578 1.1921 29.6606 1.10893L30.495 0.267999C30.5777 0.183135 30.6764 0.115722 30.7852 0.0697077C30.8941 0.0236936 31.0109 0 31.129 0C31.247 0 31.3638 0.0236936 31.4727 0.0697077ZM16.0536 11.8809C15.943 11.8346 15.8425 11.7667 15.7579 11.6812L14.9452 10.873C14.8603 10.7878 14.793 10.6865 14.7471 10.575C14.7011 10.4635 14.6775 10.344 14.6775 10.2232C14.6775 10.1025 14.7011 9.98292 14.7471 9.87141C14.793 9.7599 14.8603 9.65864 14.9452 9.57341L24.178 0.290333C24.2625 0.204808 24.363 0.136953 24.4737 0.0906503C24.5843 0.044348 24.703 0.0205093 24.8228 0.0205093C24.9426 0.0205093 25.0612 0.044348 25.1718 0.0906503C25.2825 0.136953 25.383 0.204808 25.4675 0.290333L26.2803 1.10943C26.4458 1.28245 26.5383 1.51343 26.5383 1.75379C26.5383 1.99414 26.4458 2.22512 26.2803 2.39814L17.0475 11.6812C16.9629 11.7667 16.8624 11.8346 16.7518 11.8809C16.6411 11.9272 16.5225 11.951 16.4027 11.951C16.2829 11.951 16.1643 11.9272 16.0536 11.8809ZM10.4935 14.8905C10.6024 14.9365 10.701 15.0039 10.7837 15.0888L11.6181 15.9297C11.7007 16.0129 11.7662 16.1116 11.8109 16.2203C11.8556 16.329 11.8786 16.4455 11.8786 16.5632C11.8786 16.6808 11.8556 16.7973 11.8109 16.906C11.7662 17.0147 11.7007 17.1134 11.6181 17.1966L2.36368 26.5124C2.19517 26.6812 1.96728 26.7759 1.72975 26.7759C1.49221 26.7759 1.2643 26.6812 1.0958 26.5124L0.261374 25.6715C0.0939519 25.5017 0 25.272 0 25.0326C0 24.7932 0.0939519 24.5635 0.261374 24.3937L9.51584 15.0888C9.59855 15.0039 9.69721 14.9365 9.80605 14.8905C9.9149 14.8445 10.0317 14.8208 10.1498 14.8208C10.2678 14.8208 10.3847 14.8445 10.4935 14.8905ZM30.495 26.5116C30.5777 26.5965 30.6764 26.6639 30.7852 26.7099C30.8941 26.7559 31.0109 26.7796 31.129 26.7796C31.247 26.7796 31.3638 26.7559 31.4727 26.7099C31.5815 26.6639 31.6802 26.5965 31.7629 26.5116L41.0173 17.1958C41.0999 17.1126 41.1654 17.0138 41.2101 16.9052C41.2548 16.7965 41.2778 16.68 41.2778 16.5623C41.2778 16.4447 41.2548 16.3282 41.2101 16.2195C41.1654 16.1108 41.0999 16.0121 41.0173 15.9289L40.1721 15.0879C40.0896 15.0047 39.9916 14.9387 39.8838 14.8937C39.7759 14.8486 39.6603 14.8255 39.5436 14.8255C39.4268 14.8255 39.3112 14.8486 39.2034 14.8937C39.0955 14.9387 38.9976 15.0047 38.915 15.0879L29.6606 24.4038C29.578 24.4869 29.5125 24.5857 29.4678 24.6944C29.4232 24.8031 29.4001 24.9196 29.4001 25.0372C29.4001 25.1549 29.4232 25.2714 29.4678 25.3801C29.5125 25.4887 29.578 25.5875 29.6606 25.6707L30.495 26.5116ZM24.8214 29.6444C25.059 29.6444 25.2868 29.7391 25.4554 29.9078L26.2898 30.7488C26.4572 30.9186 26.5512 31.1483 26.5512 31.3877C26.5512 31.627 26.4572 31.8567 26.2898 32.0266L17.0353 41.3424C16.8668 41.5111 16.6389 41.6058 16.4014 41.6058C16.1638 41.6058 15.936 41.5111 15.7674 41.3424L14.933 40.4905C14.8505 40.4074 14.7849 40.3086 14.7403 40.1999C14.6956 40.0912 14.6726 39.9747 14.6726 39.8571C14.6726 39.7394 14.6956 39.6229 14.7403 39.5143C14.7849 39.4056 14.8505 39.3068 14.933 39.2237L24.1875 29.9078C24.356 29.7391 24.5839 29.6444 24.8214 29.6444ZM14.9401 15.938L15.7753 15.0963C15.942 14.9283 16.168 14.834 16.4037 14.834C16.6393 14.834 16.8654 14.9284 17.032 15.0963L26.2808 24.4174C26.3643 24.5015 26.4306 24.6014 26.4758 24.7114C26.521 24.8214 26.5442 24.9393 26.5442 25.0583C26.5442 25.1773 26.521 25.2952 26.4758 25.4052C26.4306 25.5152 26.3643 25.6151 26.2808 25.6993L25.4456 26.541C25.2789 26.709 25.0529 26.8033 24.8172 26.8033C24.5816 26.8033 24.3555 26.709 24.1889 26.541L14.9324 17.2123C14.7671 17.0416 14.6752 16.8121 14.6766 16.5736C14.6781 16.335 14.7727 16.1067 14.9401 15.938ZM29.6688 30.7612L30.5046 29.92C30.6714 29.7521 30.8975 29.658 31.1331 29.6581C31.3688 29.6583 31.5948 29.7528 31.7613 29.9209L41.0036 39.2484C41.1722 39.4186 41.2668 39.6492 41.2666 39.8896C41.2665 40.13 41.1716 40.3605 41.0028 40.5304L40.167 41.3715C40.0002 41.5394 39.7741 41.6336 39.5384 41.6334C39.3028 41.6332 39.0768 41.5387 38.9103 41.3707L29.6679 32.0431C29.4994 31.873 29.4048 31.6423 29.4049 31.4019C29.4051 31.1615 29.5 30.931 29.6688 30.7612ZM45.2312 15.0866L44.396 15.9283L44.3959 15.9129C44.3124 15.9971 44.2462 16.097 44.201 16.207C44.1558 16.3169 44.1325 16.4348 44.1325 16.5538C44.1325 16.6729 44.1558 16.7908 44.201 16.9007C44.2462 17.0107 44.3124 17.1106 44.396 17.1948L53.6524 26.5236C53.819 26.6915 54.0451 26.7859 54.2807 26.7859C54.5164 26.7859 54.7424 26.6915 54.9091 26.5236L55.7366 25.6896C55.9053 25.5196 56.0001 25.289 56.0001 25.0486C56.0001 24.8082 55.9053 24.5776 55.7366 24.4076L46.4878 15.0866C46.3212 14.9186 46.0952 14.8243 45.8595 14.8243C45.6238 14.8243 45.3978 14.9186 45.2312 15.0866Z" fill="black"/>
</svg>
